<svg data-v-423bf9ae="" xmlns="http://www.w3.org/2000/svg" viewBox="0 0 540 112" class="iconLeft"><!----><!----><!----><g data-v-423bf9ae="" id="6471d099-2f78-4e04-b3b4-72b5d0cb17c8" fill="white" transform="matrix(6.054490506946714,0,0,6.054490506946714,125.9595213907754,0.12190034111694104)"><path d="M6.06 4.44L6.06 4.44Q6.06 4.20 6.30 4.20L6.30 4.20L7.80 4.20L7.80 4.20Q8.04 4.20 8.04 4.44L8.04 4.44L8.04 13.76L8.04 13.76Q8.04 14 7.80 14L7.80 14L6.30 14L6.30 14Q6.06 14 6.06 13.76L6.06 13.76L6.06 9.98L6.06 9.98Q6.06 9.90 5.98 9.90L5.98 9.90L2.91 9.90L2.91 9.90Q2.83 9.90 2.83 9.98L2.83 9.98L2.83 13.76L2.83 13.76Q2.83 14 2.59 14L2.59 14L1.09 14L1.09 14Q0.85 14 0.85 13.76L0.85 13.76L0.85 4.44L0.85 4.44Q0.85 4.20 1.09 4.20L1.09 4.20L2.59 4.20L2.59 4.20Q2.83 4.20 2.83 4.44L2.83 4.44L2.83 8.12L2.83 8.12Q2.83 8.20 2.91 8.20L2.91 8.20L5.98 8.20L5.98 8.20Q6.06 8.20 6.06 8.12L6.06 8.12L6.06 4.44ZM12.71 14.11L12.71 14.11Q11.52 14.11 10.68 13.50L10.68 13.50L10.68 13.50Q9.84 12.88 9.53 11.82L9.53 11.82L9.53 11.82Q9.34 11.16 9.34 10.39L9.34 10.39L9.34 10.39Q9.34 9.53 9.55 8.90L9.55 8.90L9.55 8.90Q9.87 7.87 10.70 7.28L10.70 7.28L10.70 7.28Q11.54 6.69 12.73 6.69L12.73 6.69L12.73 6.69Q13.87 6.69 14.69 7.28L14.69 7.28L14.69 7.28Q15.51 7.87 15.83 8.89L15.83 8.89L15.83 8.89Q16.04 9.53 16.04 10.36L16.04 10.36L16.04 10.36Q16.04 11.09 15.86 11.77L15.86 11.77L15.86 11.77Q15.54 12.87 14.71 13.49L14.71 13.49L14.71 13.49Q13.87 14.11 12.71 14.11L12.71 14.11ZM12.71 12.42L12.71 12.42Q13.16 12.42 13.48 12.14L13.48 12.14L13.48 12.14Q13.80 11.86 13.94 11.37L13.94 11.37L13.94 11.37Q14.06 10.99 14.06 10.39L14.06 10.39L14.06 10.39Q14.06 9.80 13.94 9.39L13.94 9.39L13.94 9.39Q13.80 8.92 13.48 8.65L13.48 8.65L13.48 8.65Q13.16 8.39 12.68 8.39L12.68 8.39L12.68 8.39Q12.22 8.39 11.90 8.65L11.90 8.65L11.90 8.65Q11.58 8.92 11.44 9.39L11.44 9.39L11.44 9.39Q11.33 9.80 11.33 10.39L11.33 10.39L11.33 10.39Q11.33 10.96 11.44 11.37L11.44 11.37L11.44 11.37Q11.58 11.86 11.91 12.14L11.91 12.14L11.91 12.14Q12.24 12.42 12.71 12.42L12.71 12.42ZM25.30 6.69L25.30 6.69Q26.39 6.69 27.01 7.35L27.01 7.35L27.01 7.35Q27.62 8.01 27.62 9.20L27.62 9.20L27.62 13.76L27.62 13.76Q27.62 14 27.38 14L27.38 14L25.89 14L25.89 14Q25.65 14 25.65 13.76L25.65 13.76L25.65 9.63L25.65 9.63Q25.65 9.06 25.35 8.72L25.35 8.72L25.35 8.72Q25.06 8.39 24.57 8.39L24.57 8.39L24.57 8.39Q24.08 8.39 23.77 8.72L23.77 8.72L23.77 8.72Q23.46 9.06 23.46 9.62L23.46 9.62L23.46 13.76L23.46 13.76Q23.46 14 23.23 14L23.23 14L21.74 14L21.74 14Q21.50 14 21.50 13.76L21.50 13.76L21.50 9.63L21.50 9.63Q21.50 9.07 21.20 8.73L21.20 8.73L21.20 8.73Q20.89 8.39 20.40 8.39L20.40 8.39L20.40 8.39Q19.95 8.39 19.65 8.65L19.65 8.65L19.65 8.65Q19.35 8.92 19.29 9.39L19.29 9.39L19.29 13.76L19.29 13.76Q19.29 14 19.05 14L19.05 14L17.56 14L17.56 14Q17.32 14 17.32 13.76L17.32 13.76L17.32 7.04L17.32 7.04Q17.32 6.80 17.56 6.80L17.56 6.80L19.05 6.80L19.05 6.80Q19.29 6.80 19.29 7.04L19.29 7.04L19.29 7.49L19.29 7.49Q19.29 7.55 19.33 7.56L19.33 7.56L19.33 7.56Q19.36 7.57 19.39 7.52L19.39 7.52L19.39 7.52Q19.96 6.69 21.15 6.69L21.15 6.69L21.15 6.69Q21.85 6.69 22.37 6.98L22.37 6.98L22.37 6.98Q22.89 7.27 23.17 7.81L23.17 7.81L23.17 7.81Q23.18 7.87 23.22 7.86L23.22 7.86L23.22 7.86Q23.25 7.85 23.28 7.81L23.28 7.81L23.28 7.81Q23.60 7.25 24.12 6.97L24.12 6.97L24.12 6.97Q24.64 6.69 25.30 6.69L25.30 6.69ZM32.48 12.45L32.48 12.45Q33.40 12.40 33.89 11.80L33.89 11.80L33.89 11.80Q33.98 11.70 34.08 11.70L34.08 11.70L34.08 11.70Q34.16 11.70 34.23 11.77L34.23 11.77L35.03 12.54L35.03 12.54Q35.11 12.63 35.11 12.71L35.11 12.71L35.11 12.71Q35.11 12.81 35.06 12.88L35.06 12.88L35.06 12.88Q34.59 13.45 33.87 13.78L33.87 13.78L33.87 13.78Q33.15 14.11 32.30 14.11L32.30 14.11L32.30 14.11Q31.01 14.11 30.16 13.45L30.16 13.45L30.16 13.45Q29.32 12.80 29.02 11.65L29.02 11.65L29.02 11.65Q28.85 11.03 28.85 10.35L28.85 10.35L28.85 10.35Q28.85 9.53 29.01 8.97L29.01 8.97L29.01 8.97Q29.29 7.94 30.14 7.31L30.14 7.31L30.14 7.31Q30.98 6.68 32.14 6.68L32.14 6.68L32.14 6.68Q33.52 6.68 34.32 7.49L34.32 7.49L34.32 7.49Q35.13 8.30 35.36 9.77L35.36 9.77L35.36 9.77Q35.42 10.23 35.45 10.79L35.45 10.79L35.45 10.79Q35.45 11.03 35.21 11.03L35.21 11.03L30.91 11.03L30.91 11.03Q30.83 11.03 30.83 11.12L30.83 11.12L30.83 11.12Q30.87 11.41 30.93 11.55L30.93 11.55L30.93 11.55Q31.07 11.98 31.48 12.21L31.48 12.21L31.48 12.21Q31.89 12.45 32.48 12.45L32.48 12.45ZM32.12 8.39L32.12 8.39Q31.67 8.39 31.37 8.60L31.37 8.60L31.37 8.60Q31.07 8.82 30.95 9.21L30.95 9.21L30.95 9.21Q30.88 9.48 30.87 9.56L30.87 9.56L30.87 9.56Q30.86 9.65 30.94 9.65L30.94 9.65L33.32 9.65L33.32 9.65Q33.39 9.65 33.39 9.59L33.39 9.59L33.39 9.59Q33.39 9.44 33.33 9.27L33.33 9.27L33.33 9.27Q33.21 8.86 32.90 8.62L32.90 8.62L32.90 8.62Q32.59 8.39 32.12 8.39L32.12 8.39ZM39.83 14L39.83 14Q39.59 14 39.59 13.76L39.59 13.76L39.59 4.44L39.59 4.44Q39.59 4.20 39.83 4.20L39.83 4.20L41.27 4.20L41.27 4.20Q41.45 4.20 41.55 4.35L41.55 4.35L45.05 10.18L45.05 10.18Q45.08 10.23 45.12 10.22L45.12 10.22L45.12 10.22Q45.15 10.21 45.15 10.15L45.15 10.15L45.15 4.44L45.15 4.44Q45.15 4.20 45.39 4.20L45.39 4.20L46.86 4.20L46.86 4.20Q47.10 4.20 47.10 4.44L47.10 4.44L47.10 13.76L47.10 13.76Q47.10 14 46.86 14L46.86 14L45.43 14L45.43 14Q45.26 14 45.15 13.83L45.15 13.83L41.64 7.95L41.64 7.95Q41.61 7.90 41.57 7.91L41.57 7.91L41.57 7.91Q41.54 7.92 41.54 7.98L41.54 7.98L41.55 13.76L41.55 13.76Q41.55 14 41.31 14L41.31 14L39.83 14ZM51.87 14.11L51.87 14.11Q50.68 14.11 49.84 13.50L49.84 13.50L49.84 13.50Q49 12.88 48.69 11.82L48.69 11.82L48.69 11.82Q48.50 11.16 48.50 10.39L48.50 10.39L48.50 10.39Q48.50 9.53 48.71 8.90L48.71 8.90L48.71 8.90Q49.03 7.87 49.86 7.28L49.86 7.28L49.86 7.28Q50.69 6.69 51.88 6.69L51.88 6.69L51.88 6.69Q53.03 6.69 53.85 7.28L53.85 7.28L53.85 7.28Q54.67 7.87 54.99 8.89L54.99 8.89L54.99 8.89Q55.20 9.53 55.20 10.36L55.20 10.36L55.20 10.36Q55.20 11.09 55.02 11.77L55.02 11.77L55.02 11.77Q54.70 12.87 53.87 13.49L53.87 13.49L53.87 13.49Q53.03 14.11 51.87 14.11L51.87 14.11ZM51.87 12.42L51.87 12.42Q52.32 12.42 52.64 12.14L52.64 12.14L52.64 12.14Q52.96 11.86 53.10 11.37L53.10 11.37L53.10 11.37Q53.21 10.99 53.21 10.39L53.21 10.39L53.21 10.39Q53.21 9.80 53.10 9.39L53.10 9.39L53.10 9.39Q52.96 8.92 52.64 8.65L52.64 8.65L52.64 8.65Q52.32 8.39 51.84 8.39L51.84 8.39L51.84 8.39Q51.38 8.39 51.06 8.65L51.06 8.65L51.06 8.65Q50.74 8.92 50.60 9.39L50.60 9.39L50.60 9.39Q50.48 9.80 50.48 10.39L50.48 10.39L50.48 10.39Q50.48 10.96 50.60 11.37L50.60 11.37L50.60 11.37Q50.74 11.86 51.07 12.14L51.07 12.14L51.07 12.14Q51.39 12.42 51.87 12.42L51.87 12.42ZM60.61 8.15L60.61 8.15Q60.61 8.39 60.37 8.39L60.37 8.39L59.11 8.39L59.11 8.39Q59.02 8.39 59.02 8.47L59.02 8.47L59.02 11.37L59.02 11.37Q59.02 11.83 59.21 12.05L59.21 12.05L59.21 12.05Q59.40 12.26 59.82 12.26L59.82 12.26L60.21 12.26L60.21 12.26Q60.45 12.26 60.45 12.50L60.45 12.50L60.45 13.71L60.45 13.71Q60.45 13.93 60.21 13.96L60.21 13.96L60.21 13.96Q59.68 13.99 59.44 13.99L59.44 13.99L59.44 13.99Q58.28 13.99 57.71 13.59L57.71 13.59L57.71 13.59Q57.13 13.20 57.12 12.14L57.12 12.14L57.12 8.47L57.12 8.47Q57.12 8.39 57.04 8.39L57.04 8.39L56.32 8.39L56.32 8.39Q56.08 8.39 56.08 8.15L56.08 8.15L56.08 7.04L56.08 7.04Q56.08 6.80 56.32 6.80L56.32 6.80L57.04 6.80L57.04 6.80Q57.12 6.80 57.12 6.72L57.12 6.72L57.12 5.14L57.12 5.14Q57.12 4.90 57.36 4.90L57.36 4.90L58.79 4.90L58.79 4.90Q59.02 4.90 59.02 5.14L59.02 5.14L59.02 6.72L59.02 6.72Q59.02 6.80 59.11 6.80L59.11 6.80L60.37 6.80L60.37 6.80Q60.61 6.80 60.61 7.04L60.61 7.04L60.61 8.15ZM65.27 12.45L65.27 12.45Q66.19 12.40 66.68 11.80L66.68 11.80L66.68 11.80Q66.77 11.70 66.86 11.70L66.86 11.70L66.86 11.70Q66.95 11.70 67.02 11.77L67.02 11.77L67.82 12.54L67.82 12.54Q67.90 12.63 67.90 12.71L67.90 12.71L67.90 12.71Q67.90 12.81 67.84 12.88L67.84 12.88L67.84 12.88Q67.38 13.45 66.66 13.78L66.66 13.78L66.66 13.78Q65.94 14.11 65.09 14.11L65.09 14.11L65.09 14.11Q63.80 14.11 62.95 13.45L62.95 13.45L62.95 13.45Q62.10 12.80 61.81 11.65L61.81 11.65L61.81 11.65Q61.64 11.03 61.64 10.35L61.64 10.35L61.64 10.35Q61.64 9.53 61.80 8.97L61.80 8.97L61.80 8.97Q62.08 7.94 62.92 7.31L62.92 7.31L62.92 7.31Q63.77 6.68 64.93 6.68L64.93 6.68L64.93 6.68Q66.30 6.68 67.11 7.49L67.11 7.49L67.11 7.49Q67.91 8.30 68.15 9.77L68.15 9.77L68.15 9.77Q68.21 10.23 68.24 10.79L68.24 10.79L68.24 10.79Q68.24 11.03 68.00 11.03L68.00 11.03L63.70 11.03L63.70 11.03Q63.62 11.03 63.62 11.12L63.62 11.12L63.62 11.12Q63.66 11.41 63.71 11.55L63.71 11.55L63.71 11.55Q63.85 11.98 64.27 12.21L64.27 12.21L64.27 12.21Q64.68 12.45 65.27 12.45L65.27 12.45ZM64.90 8.39L64.90 8.39Q64.46 8.39 64.16 8.60L64.16 8.60L64.16 8.60Q63.85 8.82 63.74 9.21L63.74 9.21L63.74 9.21Q63.67 9.48 63.66 9.56L63.66 9.56L63.66 9.56Q63.64 9.65 63.73 9.65L63.73 9.65L66.11 9.65L66.11 9.65Q66.18 9.65 66.18 9.59L66.18 9.59L66.18 9.59Q66.18 9.44 66.12 9.27L66.12 9.27L66.12 9.27Q66.00 8.86 65.69 8.62L65.69 8.62L65.69 8.62Q65.38 8.39 64.90 8.39L64.90 8.39Z"></path></g><!----><g data-v-423bf9ae="" id="04974724-381f-4276-8f83-e1034b2ea582" transform="matrix(1.1110631306966146,0,0,1.1110631306966146,0.4470904325516045,0.44909578161232844)" stroke="none" fill="white"><path d="M72.244 10.501c2.719 1.613 5.3 3.716 9.344 7.5 3.984 3.729 6.529 7.425 7.913 9.751-4.108 3.659-12.552 11.9-19.157 23.082-8.035 13.6-11.837 21.176-13.488 24.741-.166-.002-.331-.002-.497-.002-11.967 0-23.952 3.806-33.231 7.799l25.743-25.741a9.454 9.454 0 0 0 2.564.359c2.499 0 4.85-.973 6.621-2.74a9.354 9.354 0 0 0 2.757-6.654c0-2.514-.98-4.878-2.755-6.652a9.344 9.344 0 0 0-6.652-2.756 9.345 9.345 0 0 0-6.649 2.751c-2.454 2.447-3.28 5.999-2.383 9.192L16.625 76.877c4.051-9.408 7.909-21.599 7.796-33.736 3.564-1.65 11.14-5.451 24.737-13.483 11.185-6.603 19.424-15.045 23.086-19.157m-.921-4.829S61.817 17.736 47.212 26.36C27.186 38.188 20.506 40.671 20.506 40.671c1.468 24.66-16.101 51.247-16.101 51.247s-.59-.169-1.343-.169c-1.028 0-2.358.313-2.911 1.796-.538 1.44.475 3.037 1.242 3.979L46.98 51.941c-1.66-2.186-1.515-5.3.48-7.29a5.564 5.564 0 0 1 3.945-1.633 5.577 5.577 0 0 1 3.942 9.522 5.522 5.522 0 0 1-3.913 1.62 5.595 5.595 0 0 1-3.375-1.134L2.473 98.609c.759.617 1.943 1.388 3.125 1.388.288 0 .575-.045.856-.149 2.577-.961 1.63-4.257 1.63-4.257s24.499-16.188 48.274-16.188c.991 0 1.98.028 2.968.086 0 0 2.482-6.681 14.313-26.706 8.624-14.599 20.687-24.108 20.687-24.108s-2.849-6.661-10.121-13.47c-5.427-5.08-8.513-7.426-12.882-9.533zM98.086 26.831a1.92 1.92 0 0 1-1.762-1.158c-.026-.063-2.814-6.409-9.668-12.827-5.451-5.101-8.351-7.251-12.407-9.204A1.915 1.915 0 1 1 75.911.191c4.46 2.146 7.584 4.449 13.365 9.857 7.476 7.002 10.447 13.826 10.568 14.113a1.911 1.911 0 0 1-1.004 2.512 1.877 1.877 0 0 1-.754.158z"></path></g><!----></svg>